solid Created by Gmsh
facet normal 0 0 -1
  outer loop
    vertex 0 0 -4
    vertex 1.6875 0.75 -4
    vertex 3.375 0 -4
  endloop
endfacet
facet normal 0 0 -1
  outer loop
    vertex 1.6875 0.75 -4
    vertex 5.0625 0.75 -4
    vertex 3.375 0 -4
  endloop
endfacet
facet normal 0 0 -1
  outer loop
    vertex 1.6875 0.75 -4
    vertex 3.375 1.5 -4
    vertex 5.0625 0.75 -4
  endloop
endfacet
facet normal 0 0 -1
  outer loop
    vertex 3.375 0 -4
    vertex 5.0625 0.75 -4
    vertex 6.75 0 -4
  endloop
endfacet
facet normal -0 0 -1
  outer loop
    vertex 6.75 3 -4
    vertex 5.0625 2.25 -4
    vertex 3.375 3 -4
  endloop
endfacet
facet normal 0 0 -1
  outer loop
    vertex 5.0625 2.25 -4
    vertex 1.6875 2.25 -4
    vertex 3.375 3 -4
  endloop
endfacet
facet normal -0 0 -1
  outer loop
    vertex 5.0625 2.25 -4
    vertex 3.375 1.5 -4
    vertex 1.6875 2.25 -4
  endloop
endfacet
facet normal -0 0 -1
  outer loop
    vertex 3.375 3 -4
    vertex 1.6875 2.25 -4
    vertex 0 3 -4
  endloop
endfacet
facet normal 0 0 -1
  outer loop
    vertex 6.75 0 -4
    vertex 5.0625 0.75 -4
    vertex 6.75 1.5 -4
  endloop
endfacet
facet normal 0 0 -1
  outer loop
    vertex 5.0625 0.75 -4
    vertex 5.0625 2.25 -4
    vertex 6.75 1.5 -4
  endloop
endfacet
facet normal 0 0 -1
  outer loop
    vertex 5.0625 0.75 -4
    vertex 3.375 1.5 -4
    vertex 5.0625 2.25 -4
  endloop
endfacet
facet normal 0 0 -1
  outer loop
    vertex 6.75 1.5 -4
    vertex 5.0625 2.25 -4
    vertex 6.75 3 -4
  endloop
endfacet
facet normal 0 0 -1
  outer loop
    vertex 0 3 -4
    vertex 1.6875 2.25 -4
    vertex 0 1.5 -4
  endloop
endfacet
facet normal 0 -0 -1
  outer loop
    vertex 1.6875 2.25 -4
    vertex 1.6875 0.75 -4
    vertex 0 1.5 -4
  endloop
endfacet
facet normal 0 0 -1
  outer loop
    vertex 1.6875 2.25 -4
    vertex 3.375 1.5 -4
    vertex 1.6875 0.75 -4
  endloop
endfacet
facet normal 0 0 -1
  outer loop
    vertex 0 1.5 -4
    vertex 1.6875 0.75 -4
    vertex 0 0 -4
  endloop
endfacet
facet normal 0 0 -1
  outer loop
    vertex -6.75 0 -4
    vertex -5.910714285714286 0.7499999999999998 -4
    vertex -5.062500000000003 0 -4
  endloop
endfacet
facet normal 0 0 -1
  outer loop
    vertex -5.910714285714286 0.7499999999999998 -4
    vertex -4.223214285714288 0.7499999999999998 -4
    vertex -5.062500000000003 0 -4
  endloop
endfacet
facet normal 0 0 -1
  outer loop
    vertex -5.910714285714286 0.7499999999999998 -4
    vertex -5.071428571428573 1.5 -4
    vertex -4.223214285714288 0.7499999999999998 -4
  endloop
endfacet
facet normal 0 0 -1
  outer loop
    vertex -5.062500000000003 0 -4
    vertex -4.223214285714288 0.7499999999999998 -4
    vertex -3.375000000000004 0 -4
  endloop
endfacet
facet normal -0 0 -1
  outer loop
    vertex -3.375000000000004 3 -4
    vertex -4.223214285714288 2.25 -4
    vertex -5.062500000000003 3 -4
  endloop
endfacet
facet normal 0 0 -1
  outer loop
    vertex -4.223214285714288 2.25 -4
    vertex -5.910714285714286 2.25 -4
    vertex -5.062500000000003 3 -4
  endloop
endfacet
facet normal -0 0 -1
  outer loop
    vertex -4.223214285714288 2.25 -4
    vertex -5.071428571428573 1.5 -4
    vertex -5.910714285714286 2.25 -4
  endloop
endfacet
facet normal -0 0 -1
  outer loop
    vertex -5.062500000000003 3 -4
    vertex -5.910714285714286 2.25 -4
    vertex -6.75 3 -4
  endloop
endfacet
facet normal 0 0 -1
  outer loop
    vertex -3.375000000000004 0 -4
    vertex -2.531250000000004 0.75 -4
    vertex -1.687500000000003 0 -4
  endloop
endfacet
facet normal 0 0 -1
  outer loop
    vertex -2.531250000000004 0.75 -4
    vertex -0.8437500000000011 0.75 -4
    vertex -1.687500000000003 0 -4
  endloop
endfacet
facet normal 0 0 -1
  outer loop
    vertex -2.531250000000004 0.75 -4
    vertex -1.687500000000002 1.5 -4
    vertex -0.8437500000000011 0.75 -4
  endloop
endfacet
facet normal 0 0 -1
  outer loop
    vertex -1.687500000000003 0 -4
    vertex -0.8437500000000011 0.75 -4
    vertex 0 0 -4
  endloop
endfacet
facet normal -0 0 -1
  outer loop
    vertex 0 3 -4
    vertex -0.8437500000000011 2.25 -4
    vertex -1.687500000000003 3 -4
  endloop
endfacet
facet normal 0 0 -1
  outer loop
    vertex -0.8437500000000011 2.25 -4
    vertex -2.531250000000004 2.25 -4
    vertex -1.687500000000003 3 -4
  endloop
endfacet
facet normal -0 0 -1
  outer loop
    vertex -0.8437500000000011 2.25 -4
    vertex -1.687500000000002 1.5 -4
    vertex -2.531250000000004 2.25 -4
  endloop
endfacet
facet normal -0 0 -1
  outer loop
    vertex -1.687500000000003 3 -4
    vertex -2.531250000000004 2.25 -4
    vertex -3.375000000000004 3 -4
  endloop
endfacet
facet normal 0 0 -1
  outer loop
    vertex -3.375000000000004 3 -4
    vertex -2.531250000000004 2.25 -4
    vertex -3.375000000000004 1.5 -4
  endloop
endfacet
facet normal 0 -0 -1
  outer loop
    vertex -2.531250000000004 2.25 -4
    vertex -2.531250000000004 0.75 -4
    vertex -3.375000000000004 1.5 -4
  endloop
endfacet
facet normal 0 0 -1
  outer loop
    vertex -2.531250000000004 2.25 -4
    vertex -1.687500000000002 1.5 -4
    vertex -2.531250000000004 0.75 -4
  endloop
endfacet
facet normal 0 0 -1
  outer loop
    vertex -3.375000000000004 1.5 -4
    vertex -2.531250000000004 0.75 -4
    vertex -3.375000000000004 0 -4
  endloop
endfacet
facet normal 0 0 -1
  outer loop
    vertex -3.375000000000004 0 -4
    vertex -4.223214285714288 0.7499999999999998 -4
    vertex -3.375000000000004 1.5 -4
  endloop
endfacet
facet normal 0 0 -1
  outer loop
    vertex -4.223214285714288 0.7499999999999998 -4
    vertex -4.223214285714288 2.25 -4
    vertex -3.375000000000004 1.5 -4
  endloop
endfacet
facet normal 0 0 -1
  outer loop
    vertex -4.223214285714288 0.7499999999999998 -4
    vertex -5.071428571428573 1.5 -4
    vertex -4.223214285714288 2.25 -4
  endloop
endfacet
facet normal 0 0 -1
  outer loop
    vertex -3.375000000000004 1.5 -4
    vertex -4.223214285714288 2.25 -4
    vertex -3.375000000000004 3 -4
  endloop
endfacet
facet normal 0 0 -1
  outer loop
    vertex 0 0 -4
    vertex -0.8437500000000011 0.75 -4
    vertex 0 1.5 -4
  endloop
endfacet
facet normal 0 0 -1
  outer loop
    vertex -0.8437500000000011 0.75 -4
    vertex -0.8437500000000011 2.25 -4
    vertex 0 1.5 -4
  endloop
endfacet
facet normal 0 0 -1
  outer loop
    vertex -0.8437500000000011 0.75 -4
    vertex -1.687500000000002 1.5 -4
    vertex -0.8437500000000011 2.25 -4
  endloop
endfacet
facet normal 0 0 -1
  outer loop
    vertex 0 1.5 -4
    vertex -0.8437500000000011 2.25 -4
    vertex 0 3 -4
  endloop
endfacet
facet normal 0 0 -1
  outer loop
    vertex -6.75 1.499999999999997 -4
    vertex -5.910714285714286 1.499999999999998 -4
    vertex -6.75 0.7499999999999987 -4
  endloop
endfacet
facet normal 0 -0 -1
  outer loop
    vertex -5.910714285714286 1.499999999999998 -4
    vertex -5.910714285714286 0.7499999999999998 -4
    vertex -6.75 0.7499999999999987 -4
  endloop
endfacet
facet normal 0 0 -1
  outer loop
    vertex -5.910714285714286 1.499999999999998 -4
    vertex -5.071428571428573 1.5 -4
    vertex -5.910714285714286 0.7499999999999998 -4
  endloop
endfacet
facet normal 0 0 -1
  outer loop
    vertex -6.75 0.7499999999999987 -4
    vertex -5.910714285714286 0.7499999999999998 -4
    vertex -6.75 0 -4
  endloop
endfacet
facet normal 0 0 -1
  outer loop
    vertex -6.75 3 -4
    vertex -5.910714285714286 2.25 -4
    vertex -6.75 2.249999999999998 -4
  endloop
endfacet
facet normal 0 -0 -1
  outer loop
    vertex -5.910714285714286 2.25 -4
    vertex -5.910714285714286 1.499999999999998 -4
    vertex -6.75 2.249999999999998 -4
  endloop
endfacet
facet normal 0 0 -1
  outer loop
    vertex -5.910714285714286 2.25 -4
    vertex -5.071428571428573 1.5 -4
    vertex -5.910714285714286 1.499999999999998 -4
  endloop
endfacet
facet normal 0 0 -1
  outer loop
    vertex -6.75 2.249999999999998 -4
    vertex -5.910714285714286 1.499999999999998 -4
    vertex -6.75 1.499999999999997 -4
  endloop
endfacet
facet normal 0.503871 0 -0.863779
  outer loop
    vertex 6.75 0 -4
    vertex 8.25 0.75 -3.125
    vertex 9.75 0 -2.25
  endloop
endfacet
facet normal 0.503871 5.1146e-16 -0.863779
  outer loop
    vertex 8.25 0.75 -3.125
    vertex 11.25 0.75 -1.374999999999999
    vertex 9.75 0 -2.25
  endloop
endfacet
facet normal 0.503871 0 -0.863779
  outer loop
    vertex 8.25 0.75 -3.125
    vertex 9.75 1.5 -2.25
    vertex 11.25 0.75 -1.374999999999999
  endloop
endfacet
facet normal 0.503871 1.02292e-15 -0.863779
  outer loop
    vertex 9.75 0 -2.25
    vertex 11.25 0.75 -1.374999999999999
    vertex 12.75 0 -0.5
  endloop
endfacet
facet normal 0.503871 -1.02292e-15 -0.863779
  outer loop
    vertex 12.75 3 -0.5
    vertex 11.25 2.25 -1.374999999999999
    vertex 9.75 3 -2.25
  endloop
endfacet
facet normal 0.503871 -5.1146e-16 -0.863779
  outer loop
    vertex 11.25 2.25 -1.374999999999999
    vertex 8.25 2.25 -3.125
    vertex 9.75 3 -2.25
  endloop
endfacet
facet normal 0.503871 0 -0.863779
  outer loop
    vertex 11.25 2.25 -1.374999999999999
    vertex 9.75 1.5 -2.25
    vertex 8.25 2.25 -3.125
  endloop
endfacet
facet normal 0.503871 0 -0.863779
  outer loop
    vertex 9.75 3 -2.25
    vertex 8.25 2.25 -3.125
    vertex 6.75 3 -4
  endloop
endfacet
facet normal 0.503871 0 -0.863779
  outer loop
    vertex 6.75 3 -4
    vertex 8.25 2.25 -3.125
    vertex 6.75 1.5 -4
  endloop
endfacet
facet normal 0.503871 0 -0.863779
  outer loop
    vertex 8.25 2.25 -3.125
    vertex 8.25 0.75 -3.125
    vertex 6.75 1.5 -4
  endloop
endfacet
facet normal 0.503871 0 -0.863779
  outer loop
    vertex 8.25 2.25 -3.125
    vertex 9.75 1.5 -2.25
    vertex 8.25 0.75 -3.125
  endloop
endfacet
facet normal 0.503871 0 -0.863779
  outer loop
    vertex 6.75 1.5 -4
    vertex 8.25 0.75 -3.125
    vertex 6.75 0 -4
  endloop
endfacet
facet normal 0.503871 0 -0.863779
  outer loop
    vertex 12.75 0 -0.5
    vertex 11.25 0.75 -1.374999999999999
    vertex 12.75 1.5 -0.5
  endloop
endfacet
facet normal 0.503871 0 -0.863779
  outer loop
    vertex 11.25 0.75 -1.374999999999999
    vertex 11.25 2.25 -1.374999999999999
    vertex 12.75 1.5 -0.5
  endloop
endfacet
facet normal 0.503871 0 -0.863779
  outer loop
    vertex 11.25 0.75 -1.374999999999999
    vertex 9.75 1.5 -2.25
    vertex 11.25 2.25 -1.374999999999999
  endloop
endfacet
facet normal 0.503871 0 -0.863779
  outer loop
    vertex 12.75 1.5 -0.5
    vertex 11.25 2.25 -1.374999999999999
    vertex 12.75 3 -0.5
  endloop
endfacet
facet normal 0 -1 0
  outer loop
    vertex -3.375000000000004 0 -4
    vertex -3.087890624999999 0 -1.5
    vertex -5.062500000000003 0 -4
  endloop
endfacet
facet normal -0 -1 0
  outer loop
    vertex -3.087890624999999 0 -1.5
    vertex -4.775390624999999 0 -1.5
    vertex -5.062500000000003 0 -4
  endloop
endfacet
facet normal 0 -1 0
  outer loop
    vertex -3.087890624999999 0 -1.5
    vertex -2.800781249999997 0 1
    vertex -4.775390624999999 0 -1.5
  endloop
endfacet
facet normal 0 -1 0
  outer loop
    vertex -5.062500000000003 0 -4
    vertex -4.775390624999999 0 -1.5
    vertex -6.75 0 -4
  endloop
endfacet
facet normal 0 -1 0
  outer loop
    vertex 0 0 6
    vertex 3.927083333333333 0 3.5
    vertex 3.375 0 6
  endloop
endfacet
facet normal 0 -1 0
  outer loop
    vertex 3.927083333333333 0 3.5
    vertex 7.302083333333333 0 3.5
    vertex 3.375 0 6
  endloop
endfacet
facet normal 0 -1 0
  outer loop
    vertex 3.927083333333333 0 3.5
    vertex 7.854166666666666 0 0.9999999999999996
    vertex 7.302083333333333 0 3.5
  endloop
endfacet
facet normal 0 -1 0
  outer loop
    vertex 3.375 0 6
    vertex 7.302083333333333 0 3.5
    vertex 6.75 0 6
  endloop
endfacet
facet normal 0 -1 0
  outer loop
    vertex 6.75 0 -4
    vertex 7.302083333333333 0 -1.5
    vertex 3.375 0 -4
  endloop
endfacet
facet normal 0 -1 0
  outer loop
    vertex 7.302083333333333 0 -1.5
    vertex 3.927083333333333 0 -1.5
    vertex 3.375 0 -4
  endloop
endfacet
facet normal -0 -1 0
  outer loop
    vertex 7.302083333333333 0 -1.5
    vertex 7.854166666666666 0 0.9999999999999996
    vertex 3.927083333333333 0 -1.5
  endloop
endfacet
facet normal 0 -1 0
  outer loop
    vertex 3.375 0 -4
    vertex 3.927083333333333 0 -1.5
    vertex 0 0 -4
  endloop
endfacet
facet normal 0 -1 0
  outer loop
    vertex 0 0 -4
    vertex -1.400390624999999 0 -1.5
    vertex -1.687500000000003 0 -4
  endloop
endfacet
facet normal -0 -1 0
  outer loop
    vertex -1.400390624999999 0 -1.5
    vertex -3.087890624999999 0 -1.5
    vertex -1.687500000000003 0 -4
  endloop
endfacet
facet normal 0 -1 0
  outer loop
    vertex -1.400390624999999 0 -1.5
    vertex -2.800781249999997 0 1
    vertex -3.087890624999999 0 -1.5
  endloop
endfacet
facet normal 0 -1 0
  outer loop
    vertex -1.687500000000003 0 -4
    vertex -3.087890624999999 0 -1.5
    vertex -3.375000000000004 0 -4
  endloop
endfacet
facet normal 0 -1 -0
  outer loop
    vertex -9.749999999999993 0 4.250000000000003
    vertex -9.782063158091677 0 2.625000000000003
    vertex -8.249999999999996 0 5.125000000000002
  endloop
endfacet
facet normal 0 -1 0
  outer loop
    vertex -9.782063158091677 0 2.625000000000003
    vertex -8.282063158091681 0 3.500000000000001
    vertex -8.249999999999996 0 5.125000000000002
  endloop
endfacet
facet normal 0 -1 -0
  outer loop
    vertex -9.782063158091677 0 2.625000000000003
    vertex -9.814126316183362 0 1.000000000000003
    vertex -8.282063158091681 0 3.500000000000001
  endloop
endfacet
facet normal 0 -1 -0
  outer loop
    vertex -8.249999999999996 0 5.125000000000002
    vertex -8.282063158091681 0 3.500000000000001
    vertex -6.75 0 6
  endloop
endfacet
facet normal 0 -1 0
  outer loop
    vertex -6.75 0 -4
    vertex -8.282063158091681 0 -1.499999999999999
    vertex -8.250000000000004 0 -3.124999999999998
  endloop
endfacet
facet normal -0 -1 -0
  outer loop
    vertex -8.282063158091681 0 -1.499999999999999
    vertex -9.782063158091681 0 -0.6249999999999967
    vertex -8.250000000000004 0 -3.124999999999998
  endloop
endfacet
facet normal 0 -1 0
  outer loop
    vertex -8.282063158091681 0 -1.499999999999999
    vertex -9.814126316183362 0 1.000000000000003
    vertex -9.782063158091681 0 -0.6249999999999967
  endloop
endfacet
facet normal 0 -1 0
  outer loop
    vertex -8.250000000000004 0 -3.124999999999998
    vertex -9.782063158091681 0 -0.6249999999999967
    vertex -9.750000000000005 0 -2.249999999999996
  endloop
endfacet
facet normal 0 -1 0
  outer loop
    vertex -6.75 0 6
    vertex -4.775390624999999 0 3.5
    vertex -5.062499999999997 0 6
  endloop
endfacet
facet normal 0 -1 0
  outer loop
    vertex -4.775390624999999 0 3.5
    vertex -3.087890624999996 0 3.5
    vertex -5.062499999999997 0 6
  endloop
endfacet
facet normal 0 -1 0
  outer loop
    vertex -4.775390624999999 0 3.5
    vertex -2.800781249999997 0 1
    vertex -3.087890624999996 0 3.5
  endloop
endfacet
facet normal 0 -1 0
  outer loop
    vertex -5.062499999999997 0 6
    vertex -3.087890624999996 0 3.5
    vertex -3.374999999999995 0 6
  endloop
endfacet
facet normal 0 -1 0
  outer loop
    vertex 6.75 0 6
    vertex 7.302083333333333 0 3.5
    vertex 9.75 0 4.25
  endloop
endfacet
facet normal 0 -1 0
  outer loop
    vertex 7.302083333333333 0 3.5
    vertex 10.30208333333333 0 1.75
    vertex 9.75 0 4.25
  endloop
endfacet
facet normal 0 -1 0
  outer loop
    vertex 7.302083333333333 0 3.5
    vertex 7.854166666666666 0 0.9999999999999996
    vertex 10.30208333333333 0 1.75
  endloop
endfacet
facet normal 0 -1 0
  outer loop
    vertex 9.75 0 4.25
    vertex 10.30208333333333 0 1.75
    vertex 12.75 0 2.5
  endloop
endfacet
facet normal -0 -1 0
  outer loop
    vertex 12.75 0 -0.5
    vertex 10.30208333333333 0 0.25
    vertex 9.75 0 -2.25
  endloop
endfacet
facet normal 0 -1 0
  outer loop
    vertex 10.30208333333333 0 0.25
    vertex 7.302083333333333 0 -1.5
    vertex 9.75 0 -2.25
  endloop
endfacet
facet normal -0 -1 0
  outer loop
    vertex 10.30208333333333 0 0.25
    vertex 7.854166666666666 0 0.9999999999999996
    vertex 7.302083333333333 0 -1.5
  endloop
endfacet
facet normal -0 -1 0
  outer loop
    vertex 9.75 0 -2.25
    vertex 7.302083333333333 0 -1.5
    vertex 6.75 0 -4
  endloop
endfacet
facet normal 0 -1 0
  outer loop
    vertex 0 0 -4
    vertex 3.927083333333333 0 -1.5
    vertex -1.400390624999999 0 -1.5
  endloop
endfacet
facet normal 0 -1 0
  outer loop
    vertex 3.927083333333333 0 -1.5
    vertex 2.526692708333334 0 1
    vertex -1.400390624999999 0 -1.5
  endloop
endfacet
facet normal 0 -1 0
  outer loop
    vertex 3.927083333333333 0 -1.5
    vertex 7.854166666666666 0 0.9999999999999996
    vertex 2.526692708333334 0 1
  endloop
endfacet
facet normal 0 -1 0
  outer loop
    vertex -1.400390624999999 0 -1.5
    vertex 2.526692708333334 0 1
    vertex -2.800781249999997 0 1
  endloop
endfacet
facet normal 0 -1 0
  outer loop
    vertex -2.800781249999997 0 1
    vertex 2.526692708333334 0 1
    vertex -1.400390624999999 0 3.5
  endloop
endfacet
facet normal 0 -1 0
  outer loop
    vertex 2.526692708333334 0 1
    vertex 3.927083333333333 0 3.5
    vertex -1.400390624999999 0 3.5
  endloop
endfacet
facet normal 0 -1 0
  outer loop
    vertex 2.526692708333334 0 1
    vertex 7.854166666666666 0 0.9999999999999996
    vertex 3.927083333333333 0 3.5
  endloop
endfacet
facet normal 0 -1 0
  outer loop
    vertex -1.400390624999999 0 3.5
    vertex 3.927083333333333 0 3.5
    vertex 0 0 6
  endloop
endfacet
facet normal 0 -1 -0
  outer loop
    vertex 12.75 0 2.5
    vertex 10.30208333333333 0 1.75
    vertex 12.75 0 1
  endloop
endfacet
facet normal 0 -1 0
  outer loop
    vertex 10.30208333333333 0 1.75
    vertex 10.30208333333333 0 0.25
    vertex 12.75 0 1
  endloop
endfacet
facet normal 0 -1 -0
  outer loop
    vertex 10.30208333333333 0 1.75
    vertex 7.854166666666666 0 0.9999999999999996
    vertex 10.30208333333333 0 0.25
  endloop
endfacet
facet normal 0 -1 -0
  outer loop
    vertex 12.75 0 1
    vertex 10.30208333333333 0 0.25
    vertex 12.75 0 -0.5
  endloop
endfacet
facet normal -0 -1 0
  outer loop
    vertex -2.800781249999997 0 1
    vertex -6.30745378309168 0 1.000000000000002
    vertex -4.775390624999999 0 -1.5
  endloop
endfacet
facet normal 0 -1 -0
  outer loop
    vertex -6.30745378309168 0 1.000000000000002
    vertex -8.282063158091681 0 -1.499999999999999
    vertex -4.775390624999999 0 -1.5
  endloop
endfacet
facet normal -0 -1 0
  outer loop
    vertex -6.30745378309168 0 1.000000000000002
    vertex -9.814126316183362 0 1.000000000000003
    vertex -8.282063158091681 0 -1.499999999999999
  endloop
endfacet
facet normal -0 -1 0
  outer loop
    vertex -4.775390624999999 0 -1.5
    vertex -8.282063158091681 0 -1.499999999999999
    vertex -6.75 0 -4
  endloop
endfacet
facet normal 0 -1 -0
  outer loop
    vertex -6.75 0 6
    vertex -8.282063158091681 0 3.500000000000001
    vertex -4.775390624999999 0 3.5
  endloop
endfacet
facet normal 0 -1 0
  outer loop
    vertex -8.282063158091681 0 3.500000000000001
    vertex -6.30745378309168 0 1.000000000000002
    vertex -4.775390624999999 0 3.5
  endloop
endfacet
facet normal 0 -1 -0
  outer loop
    vertex -8.282063158091681 0 3.500000000000001
    vertex -9.814126316183362 0 1.000000000000003
    vertex -6.30745378309168 0 1.000000000000002
  endloop
endfacet
facet normal 0 -1 -0
  outer loop
    vertex -4.775390624999999 0 3.5
    vertex -6.30745378309168 0 1.000000000000002
    vertex -2.800781249999997 0 1
  endloop
endfacet
facet normal 0 -1 0
  outer loop
    vertex -12.75 0 2.5
    vertex -11.28206315809168 0 1.750000000000001
    vertex -11.25 0 3.375000000000002
  endloop
endfacet
facet normal 0 -1 0
  outer loop
    vertex -11.28206315809168 0 1.750000000000001
    vertex -9.782063158091677 0 2.625000000000003
    vertex -11.25 0 3.375000000000002
  endloop
endfacet
facet normal 0 -1 0
  outer loop
    vertex -11.28206315809168 0 1.750000000000001
    vertex -9.814126316183362 0 1.000000000000003
    vertex -9.782063158091677 0 2.625000000000003
  endloop
endfacet
facet normal 0 -1 0
  outer loop
    vertex -11.25 0 3.375000000000002
    vertex -9.782063158091677 0 2.625000000000003
    vertex -9.749999999999993 0 4.250000000000003
  endloop
endfacet
facet normal 0 -1 0
  outer loop
    vertex -9.750000000000005 0 -2.249999999999996
    vertex -9.782063158091681 0 -0.6249999999999967
    vertex -11.25 0 -1.374999999999998
  endloop
endfacet
facet normal -0 -1 0
  outer loop
    vertex -9.782063158091681 0 -0.6249999999999967
    vertex -11.28206315809168 0 0.2500000000000014
    vertex -11.25 0 -1.374999999999998
  endloop
endfacet
facet normal 0 -1 0
  outer loop
    vertex -9.782063158091681 0 -0.6249999999999967
    vertex -9.814126316183362 0 1.000000000000003
    vertex -11.28206315809168 0 0.2500000000000014
  endloop
endfacet
facet normal 0 -1 0
  outer loop
    vertex -11.25 0 -1.374999999999998
    vertex -11.28206315809168 0 0.2500000000000014
    vertex -12.75 0 -0.5
  endloop
endfacet
facet normal 0 -1 0
  outer loop
    vertex -3.374999999999995 0 6
    vertex -3.087890624999996 0 3.5
    vertex -1.687499999999997 0 6
  endloop
endfacet
facet normal 0 -1 0
  outer loop
    vertex -3.087890624999996 0 3.5
    vertex -1.400390624999999 0 3.5
    vertex -1.687499999999997 0 6
  endloop
endfacet
facet normal 0 -1 0
  outer loop
    vertex -3.087890624999996 0 3.5
    vertex -2.800781249999997 0 1
    vertex -1.400390624999999 0 3.5
  endloop
endfacet
facet normal 0 -1 0
  outer loop
    vertex -1.687499999999997 0 6
    vertex -1.400390624999999 0 3.5
    vertex 0 0 6
  endloop
endfacet
facet normal 0 -1 0
  outer loop
    vertex -12.75 0 -0.5
    vertex -11.28206315809168 0 0.2500000000000014
    vertex -12.75 0 0.2499999999999987
  endloop
endfacet
facet normal -0 -1 0
  outer loop
    vertex -11.28206315809168 0 0.2500000000000014
    vertex -11.28206315809168 0 0.9999999999999999
    vertex -12.75 0 0.2499999999999987
  endloop
endfacet
facet normal 0 -1 0
  outer loop
    vertex -11.28206315809168 0 0.2500000000000014
    vertex -9.814126316183362 0 1.000000000000003
    vertex -11.28206315809168 0 0.9999999999999999
  endloop
endfacet
facet normal 0 -1 0
  outer loop
    vertex -12.75 0 0.2499999999999987
    vertex -11.28206315809168 0 0.9999999999999999
    vertex -12.75 0 0.9999999999999971
  endloop
endfacet
facet normal 0 -1 0
  outer loop
    vertex -12.75 0 0.9999999999999971
    vertex -11.28206315809168 0 0.9999999999999999
    vertex -12.75 0 1.749999999999998
  endloop
endfacet
facet normal 0 -1 0
  outer loop
    vertex -11.28206315809168 0 0.9999999999999999
    vertex -11.28206315809168 0 1.750000000000001
    vertex -12.75 0 1.749999999999998
  endloop
endfacet
facet normal 0 -1 0
  outer loop
    vertex -11.28206315809168 0 0.9999999999999999
    vertex -9.814126316183362 0 1.000000000000003
    vertex -11.28206315809168 0 1.750000000000001
  endloop
endfacet
facet normal 0 -1 0
  outer loop
    vertex -12.75 0 1.749999999999998
    vertex -11.28206315809168 0 1.750000000000001
    vertex -12.75 0 2.5
  endloop
endfacet
facet normal -0.503871 0 -0.863779
  outer loop
    vertex -6.75 1.499999999999997 -4
    vertex -8.250000000000004 0.7499999999999984 -3.124999999999997
    vertex -8.250000000000004 2.249999999999998 -3.124999999999997
  endloop
endfacet
facet normal -0.503871 0 -0.863779
  outer loop
    vertex -8.250000000000004 0.7499999999999984 -3.124999999999997
    vertex -9.750000000000005 1.5 -2.249999999999996
    vertex -8.250000000000004 2.249999999999998 -3.124999999999997
  endloop
endfacet
facet normal -0.503871 0 -0.863779
  outer loop
    vertex -8.250000000000004 0.7499999999999984 -3.124999999999997
    vertex -9.750000000000005 0 -2.249999999999996
    vertex -9.750000000000005 1.5 -2.249999999999996
  endloop
endfacet
facet normal -0.503871 0 -0.863779
  outer loop
    vertex -8.250000000000004 2.249999999999998 -3.124999999999997
    vertex -9.750000000000005 1.5 -2.249999999999996
    vertex -9.750000000000005 3 -2.249999999999996
  endloop
endfacet
facet normal -0.503871 0 -0.863779
  outer loop
    vertex -9.750000000000005 0 -2.249999999999996
    vertex -11.25 0.7499999999999984 -1.374999999999998
    vertex -9.750000000000005 1.5 -2.249999999999996
  endloop
endfacet
facet normal -0.503871 0 -0.863779
  outer loop
    vertex -11.25 0.7499999999999984 -1.374999999999998
    vertex -11.25 2.249999999999998 -1.374999999999998
    vertex -9.750000000000005 1.5 -2.249999999999996
  endloop
endfacet
facet normal -0.503871 0 -0.863779
  outer loop
    vertex -11.25 0.7499999999999984 -1.374999999999998
    vertex -12.75 1.499999999999997 -0.5
    vertex -11.25 2.249999999999998 -1.374999999999998
  endloop
endfacet
facet normal -0.503871 0 -0.863779
  outer loop
    vertex -9.750000000000005 1.5 -2.249999999999996
    vertex -11.25 2.249999999999998 -1.374999999999998
    vertex -9.750000000000005 3 -2.249999999999996
  endloop
endfacet
facet normal -0.503871 0 -0.863779
  outer loop
    vertex -6.75 0 -4
    vertex -8.250000000000004 0 -3.124999999999998
    vertex -6.75 0.7499999999999987 -4
  endloop
endfacet
facet normal -0.503871 1.02292e-15 -0.863779
  outer loop
    vertex -8.250000000000004 0 -3.124999999999998
    vertex -8.250000000000004 0.7499999999999984 -3.124999999999997
    vertex -6.75 0.7499999999999987 -4
  endloop
endfacet
facet normal -0.503871 1.02292e-15 -0.863779
  outer loop
    vertex -8.250000000000004 0 -3.124999999999998
    vertex -9.750000000000005 0 -2.249999999999996
    vertex -8.250000000000004 0.7499999999999984 -3.124999999999997
  endloop
endfacet
facet normal -0.503871 0 -0.863779
  outer loop
    vertex -6.75 0.7499999999999987 -4
    vertex -8.250000000000004 0.7499999999999984 -3.124999999999997
    vertex -6.75 1.499999999999997 -4
  endloop
endfacet
facet normal -0.503871 0 -0.863779
  outer loop
    vertex -6.75 1.499999999999997 -4
    vertex -8.250000000000004 2.249999999999998 -3.124999999999997
    vertex -6.75 2.249999999999998 -4
  endloop
endfacet
facet normal -0.503871 -1.02292e-15 -0.863779
  outer loop
    vertex -8.250000000000004 2.249999999999998 -3.124999999999997
    vertex -8.250000000000004 3 -3.124999999999998
    vertex -6.75 2.249999999999998 -4
  endloop
endfacet
facet normal -0.503871 -1.02292e-15 -0.863779
  outer loop
    vertex -8.250000000000004 2.249999999999998 -3.124999999999997
    vertex -9.750000000000005 3 -2.249999999999996
    vertex -8.250000000000004 3 -3.124999999999998
  endloop
endfacet
facet normal -0.503871 0 -0.863779
  outer loop
    vertex -6.75 2.249999999999998 -4
    vertex -8.250000000000004 3 -3.124999999999998
    vertex -6.75 3 -4
  endloop
endfacet
facet normal -0.503871 5.1146e-16 -0.863779
  outer loop
    vertex -9.750000000000005 0 -2.249999999999996
    vertex -11.25 0 -1.374999999999998
    vertex -11.25 0.7499999999999984 -1.374999999999998
  endloop
endfacet
facet normal -0.503871 5.1146e-16 -0.863779
  outer loop
    vertex -11.25 0 -1.374999999999998
    vertex -12.75 0.7499999999999987 -0.5
    vertex -11.25 0.7499999999999984 -1.374999999999998
  endloop
endfacet
facet normal -0.503871 0 -0.863779
  outer loop
    vertex -11.25 0 -1.374999999999998
    vertex -12.75 0 -0.5
    vertex -12.75 0.7499999999999987 -0.5
  endloop
endfacet
facet normal -0.503871 0 -0.863779
  outer loop
    vertex -11.25 0.7499999999999984 -1.374999999999998
    vertex -12.75 0.7499999999999987 -0.5
    vertex -12.75 1.499999999999997 -0.5
  endloop
endfacet
facet normal -0.503871 -5.1146e-16 -0.863779
  outer loop
    vertex -9.750000000000005 3 -2.249999999999996
    vertex -11.25 2.249999999999998 -1.374999999999998
    vertex -11.25 3 -1.374999999999998
  endloop
endfacet
facet normal -0.503871 -5.1146e-16 -0.863779
  outer loop
    vertex -11.25 2.249999999999998 -1.374999999999998
    vertex -12.75 2.249999999999998 -0.5
    vertex -11.25 3 -1.374999999999998
  endloop
endfacet
facet normal -0.503871 0 -0.863779
  outer loop
    vertex -11.25 2.249999999999998 -1.374999999999998
    vertex -12.75 1.499999999999997 -0.5
    vertex -12.75 2.249999999999998 -0.5
  endloop
endfacet
facet normal -0.503871 0 -0.863779
  outer loop
    vertex -11.25 3 -1.374999999999998
    vertex -12.75 2.249999999999998 -0.5
    vertex -12.75 3 -0.5
  endloop
endfacet
facet normal 1 0 0
  outer loop
    vertex 12.75 3 -0.5
    vertex 12.75 2.25 0.25
    vertex 12.75 1.5 -0.5
  endloop
endfacet
facet normal 1 0 0
  outer loop
    vertex 12.75 2.25 0.25
    vertex 12.75 0.75 0.25
    vertex 12.75 1.5 -0.5
  endloop
endfacet
facet normal 1 0 0
  outer loop
    vertex 12.75 2.25 0.25
    vertex 12.75 1.5 1
    vertex 12.75 0.75 0.25
  endloop
endfacet
facet normal 1 0 0
  outer loop
    vertex 12.75 1.5 -0.5
    vertex 12.75 0.75 0.25
    vertex 12.75 0 -0.5
  endloop
endfacet
facet normal 1 0 0
  outer loop
    vertex 12.75 0 -0.5
    vertex 12.75 0.75 0.25
    vertex 12.75 0 1
  endloop
endfacet
facet normal 1 0 -0
  outer loop
    vertex 12.75 0.75 0.25
    vertex 12.75 0.75 1.75
    vertex 12.75 0 1
  endloop
endfacet
facet normal 1 0 0
  outer loop
    vertex 12.75 0.75 0.25
    vertex 12.75 1.5 1
    vertex 12.75 0.75 1.75
  endloop
endfacet
facet normal 1 0 0
  outer loop
    vertex 12.75 0 1
    vertex 12.75 0.75 1.75
    vertex 12.75 0 2.5
  endloop
endfacet
facet normal 1 0 0
  outer loop
    vertex 12.75 3 2.5
    vertex 12.75 2.25 1.75
    vertex 12.75 3 1
  endloop
endfacet
facet normal 1 0 0
  outer loop
    vertex 12.75 2.25 1.75
    vertex 12.75 2.25 0.25
    vertex 12.75 3 1
  endloop
endfacet
facet normal 1 0 0
  outer loop
    vertex 12.75 2.25 1.75
    vertex 12.75 1.5 1
    vertex 12.75 2.25 0.25
  endloop
endfacet
facet normal 1 0 0
  outer loop
    vertex 12.75 3 1
    vertex 12.75 2.25 0.25
    vertex 12.75 3 -0.5
  endloop
endfacet
facet normal 1 -0 0
  outer loop
    vertex 12.75 0 2.5
    vertex 12.75 0.75 1.75
    vertex 12.75 1.5 2.5
  endloop
endfacet
facet normal 1 0 0
  outer loop
    vertex 12.75 0.75 1.75
    vertex 12.75 2.25 1.75
    vertex 12.75 1.5 2.5
  endloop
endfacet
facet normal 1 -0 0
  outer loop
    vertex 12.75 0.75 1.75
    vertex 12.75 1.5 1
    vertex 12.75 2.25 1.75
  endloop
endfacet
facet normal 1 -0 0
  outer loop
    vertex 12.75 1.5 2.5
    vertex 12.75 2.25 1.75
    vertex 12.75 3 2.5
  endloop
endfacet
facet normal 0.503871 0 0.863779
  outer loop
    vertex 12.75 0 2.5
    vertex 11.25 0.75 3.375
    vertex 9.75 0 4.25
  endloop
endfacet
facet normal 0.503871 0 0.863779
  outer loop
    vertex 11.25 0.75 3.375
    vertex 8.25 0.75 5.125
    vertex 9.75 0 4.25
  endloop
endfacet
facet normal 0.503871 0 0.863779
  outer loop
    vertex 11.25 0.75 3.375
    vertex 9.75 1.5 4.25
    vertex 8.25 0.75 5.125
  endloop
endfacet
facet normal 0.503871 0 0.863779
  outer loop
    vertex 9.75 0 4.25
    vertex 8.25 0.75 5.125
    vertex 6.75 0 6
  endloop
endfacet
facet normal 0.503871 0 0.863779
  outer loop
    vertex 6.75 3 6
    vertex 8.25 2.25 5.125
    vertex 9.75 3 4.25
  endloop
endfacet
facet normal 0.503871 0 0.863779
  outer loop
    vertex 8.25 2.25 5.125
    vertex 11.25 2.25 3.375
    vertex 9.75 3 4.25
  endloop
endfacet
facet normal 0.503871 0 0.863779
  outer loop
    vertex 8.25 2.25 5.125
    vertex 9.75 1.5 4.25
    vertex 11.25 2.25 3.375
  endloop
endfacet
facet normal 0.503871 0 0.863779
  outer loop
    vertex 9.75 3 4.25
    vertex 11.25 2.25 3.375
    vertex 12.75 3 2.5
  endloop
endfacet
facet normal 0.503871 0 0.863779
  outer loop
    vertex 12.75 3 2.5
    vertex 11.25 2.25 3.375
    vertex 12.75 1.5 2.5
  endloop
endfacet
facet normal 0.503871 0 0.863779
  outer loop
    vertex 11.25 2.25 3.375
    vertex 11.25 0.75 3.375
    vertex 12.75 1.5 2.5
  endloop
endfacet
facet normal 0.503871 0 0.863779
  outer loop
    vertex 11.25 2.25 3.375
    vertex 9.75 1.5 4.25
    vertex 11.25 0.75 3.375
  endloop
endfacet
facet normal 0.503871 0 0.863779
  outer loop
    vertex 12.75 1.5 2.5
    vertex 11.25 0.75 3.375
    vertex 12.75 0 2.5
  endloop
endfacet
facet normal 0.503871 -0 0.863779
  outer loop
    vertex 6.75 0 6
    vertex 8.25 0.75 5.125
    vertex 6.75 1.5 6
  endloop
endfacet
facet normal 0.503871 -0 0.863779
  outer loop
    vertex 8.25 0.75 5.125
    vertex 8.25 2.25 5.125
    vertex 6.75 1.5 6
  endloop
endfacet
facet normal 0.503871 -0 0.863779
  outer loop
    vertex 8.25 0.75 5.125
    vertex 9.75 1.5 4.25
    vertex 8.25 2.25 5.125
  endloop
endfacet
facet normal 0.503871 -0 0.863779
  outer loop
    vertex 6.75 1.5 6
    vertex 8.25 2.25 5.125
    vertex 6.75 3 6
  endloop
endfacet
facet normal 0 0 1
  outer loop
    vertex 6.75 0 6
    vertex 5.0625 0.75 6
    vertex 3.375 0 6
  endloop
endfacet
facet normal 0 0 1
  outer loop
    vertex 5.0625 0.75 6
    vertex 1.6875 0.75 6
    vertex 3.375 0 6
  endloop
endfacet
facet normal 0 0 1
  outer loop
    vertex 5.0625 0.75 6
    vertex 3.375 1.5 6
    vertex 1.6875 0.75 6
  endloop
endfacet
facet normal 0 0 1
  outer loop
    vertex 3.375 0 6
    vertex 1.6875 0.75 6
    vertex 0 0 6
  endloop
endfacet
facet normal -0 0 1
  outer loop
    vertex 0 3 6
    vertex 1.6875 2.25 6
    vertex 3.375 3 6
  endloop
endfacet
facet normal 0 0 1
  outer loop
    vertex 1.6875 2.25 6
    vertex 5.0625 2.25 6
    vertex 3.375 3 6
  endloop
endfacet
facet normal -0 0 1
  outer loop
    vertex 1.6875 2.25 6
    vertex 3.375 1.5 6
    vertex 5.0625 2.25 6
  endloop
endfacet
facet normal -0 0 1
  outer loop
    vertex 3.375 3 6
    vertex 5.0625 2.25 6
    vertex 6.75 3 6
  endloop
endfacet
facet normal 0 0 1
  outer loop
    vertex 0 0 6
    vertex 1.6875 0.75 6
    vertex 0 1.5 6
  endloop
endfacet
facet normal 0 -0 1
  outer loop
    vertex 1.6875 0.75 6
    vertex 1.6875 2.25 6
    vertex 0 1.5 6
  endloop
endfacet
facet normal 0 0 1
  outer loop
    vertex 1.6875 0.75 6
    vertex 3.375 1.5 6
    vertex 1.6875 2.25 6
  endloop
endfacet
facet normal 0 0 1
  outer loop
    vertex 0 1.5 6
    vertex 1.6875 2.25 6
    vertex 0 3 6
  endloop
endfacet
facet normal 0 0 1
  outer loop
    vertex 6.75 3 6
    vertex 5.0625 2.25 6
    vertex 6.75 1.5 6
  endloop
endfacet
facet normal 0 0 1
  outer loop
    vertex 5.0625 2.25 6
    vertex 5.0625 0.75 6
    vertex 6.75 1.5 6
  endloop
endfacet
facet normal 0 0 1
  outer loop
    vertex 5.0625 2.25 6
    vertex 3.375 1.5 6
    vertex 5.0625 0.75 6
  endloop
endfacet
facet normal 0 0 1
  outer loop
    vertex 6.75 1.5 6
    vertex 5.0625 0.75 6
    vertex 6.75 0 6
  endloop
endfacet
facet normal -0 0 1
  outer loop
    vertex -6.75 3 6
    vertex -5.910714285714285 2.25 6
    vertex -5.062499999999997 3 6
  endloop
endfacet
facet normal 0 0 1
  outer loop
    vertex -5.910714285714285 2.25 6
    vertex -4.223214285714281 2.25 6
    vertex -5.062499999999997 3 6
  endloop
endfacet
facet normal -0 0 1
  outer loop
    vertex -5.910714285714285 2.25 6
    vertex -5.071428571428569 1.5 6
    vertex -4.223214285714281 2.25 6
  endloop
endfacet
facet normal -0 0 1
  outer loop
    vertex -5.062499999999997 3 6
    vertex -4.223214285714281 2.25 6
    vertex -3.374999999999995 3 6
  endloop
endfacet
facet normal 0 0 1
  outer loop
    vertex -3.374999999999995 0 6
    vertex -4.223214285714281 0.7499999999999998 6
    vertex -5.062499999999997 0 6
  endloop
endfacet
facet normal 0 0 1
  outer loop
    vertex -4.223214285714281 0.7499999999999998 6
    vertex -5.910714285714285 0.7499999999999998 6
    vertex -5.062499999999997 0 6
  endloop
endfacet
facet normal 0 0 1
  outer loop
    vertex -4.223214285714281 0.7499999999999998 6
    vertex -5.071428571428569 1.5 6
    vertex -5.910714285714285 0.7499999999999998 6
  endloop
endfacet
facet normal 0 0 1
  outer loop
    vertex -5.062499999999997 0 6
    vertex -5.910714285714285 0.7499999999999998 6
    vertex -6.75 0 6
  endloop
endfacet
facet normal 0 0 1
  outer loop
    vertex 0 0 6
    vertex -0.8437499999999982 0.7499999999999999 6
    vertex -1.687499999999997 0 6
  endloop
endfacet
facet normal 0 0 1
  outer loop
    vertex -0.8437499999999982 0.7499999999999999 6
    vertex -2.531249999999996 0.7499999999999999 6
    vertex -1.687499999999997 0 6
  endloop
endfacet
facet normal 0 0 1
  outer loop
    vertex -0.8437499999999982 0.7499999999999999 6
    vertex -1.687499999999996 1.5 6
    vertex -2.531249999999996 0.7499999999999999 6
  endloop
endfacet
facet normal 0 0 1
  outer loop
    vertex -1.687499999999997 0 6
    vertex -2.531249999999996 0.7499999999999999 6
    vertex -3.374999999999995 0 6
  endloop
endfacet
facet normal -0 0 1
  outer loop
    vertex -3.374999999999995 3 6
    vertex -2.531249999999996 2.25 6
    vertex -1.687499999999997 3 6
  endloop
endfacet
facet normal 0 0 1
  outer loop
    vertex -2.531249999999996 2.25 6
    vertex -0.8437499999999982 2.25 6
    vertex -1.687499999999997 3 6
  endloop
endfacet
facet normal -0 0 1
  outer loop
    vertex -2.531249999999996 2.25 6
    vertex -1.687499999999996 1.5 6
    vertex -0.8437499999999982 2.25 6
  endloop
endfacet
facet normal -0 0 1
  outer loop
    vertex -1.687499999999997 3 6
    vertex -0.8437499999999982 2.25 6
    vertex 0 3 6
  endloop
endfacet
facet normal 0 0 1
  outer loop
    vertex -3.374999999999995 0 6
    vertex -2.531249999999996 0.7499999999999999 6
    vertex -3.374999999999995 1.5 6
  endloop
endfacet
facet normal 0 -0 1
  outer loop
    vertex -2.531249999999996 0.7499999999999999 6
    vertex -2.531249999999996 2.25 6
    vertex -3.374999999999995 1.5 6
  endloop
endfacet
facet normal 0 0 1
  outer loop
    vertex -2.531249999999996 0.7499999999999999 6
    vertex -1.687499999999996 1.5 6
    vertex -2.531249999999996 2.25 6
  endloop
endfacet
facet normal 0 -0 1
  outer loop
    vertex -3.374999999999995 1.5 6
    vertex -2.531249999999996 2.25 6
    vertex -3.374999999999995 3 6
  endloop
endfacet
facet normal 0 0 1
  outer loop
    vertex -3.374999999999995 3 6
    vertex -4.223214285714281 2.25 6
    vertex -3.374999999999995 1.5 6
  endloop
endfacet
facet normal 0 0 1
  outer loop
    vertex -4.223214285714281 2.25 6
    vertex -4.223214285714281 0.7499999999999998 6
    vertex -3.374999999999995 1.5 6
  endloop
endfacet
facet normal 0 0 1
  outer loop
    vertex -4.223214285714281 2.25 6
    vertex -5.071428571428569 1.5 6
    vertex -4.223214285714281 0.7499999999999998 6
  endloop
endfacet
facet normal 0 0 1
  outer loop
    vertex -3.374999999999995 1.5 6
    vertex -4.223214285714281 0.7499999999999998 6
    vertex -3.374999999999995 0 6
  endloop
endfacet
facet normal 0 0 1
  outer loop
    vertex 0 3 6
    vertex -0.8437499999999982 2.25 6
    vertex 0 1.5 6
  endloop
endfacet
facet normal 0 0 1
  outer loop
    vertex -0.8437499999999982 2.25 6
    vertex -0.8437499999999982 0.7499999999999999 6
    vertex 0 1.5 6
  endloop
endfacet
facet normal 0 0 1
  outer loop
    vertex -0.8437499999999982 2.25 6
    vertex -1.687499999999996 1.5 6
    vertex -0.8437499999999982 0.7499999999999999 6
  endloop
endfacet
facet normal 0 0 1
  outer loop
    vertex 0 1.5 6
    vertex -0.8437499999999982 0.7499999999999999 6
    vertex 0 0 6
  endloop
endfacet
facet normal 0 0 1
  outer loop
    vertex -6.75 1.499999999999997 6
    vertex -5.910714285714285 1.499999999999998 6
    vertex -6.75 2.249999999999998 6
  endloop
endfacet
facet normal 0 -0 1
  outer loop
    vertex -5.910714285714285 1.499999999999998 6
    vertex -5.910714285714285 2.25 6
    vertex -6.75 2.249999999999998 6
  endloop
endfacet
facet normal 0 0 1
  outer loop
    vertex -5.910714285714285 1.499999999999998 6
    vertex -5.071428571428569 1.5 6
    vertex -5.910714285714285 2.25 6
  endloop
endfacet
facet normal 0 0 1
  outer loop
    vertex -6.75 2.249999999999998 6
    vertex -5.910714285714285 2.25 6
    vertex -6.75 3 6
  endloop
endfacet
facet normal 0 0 1
  outer loop
    vertex -6.75 0 6
    vertex -5.910714285714285 0.7499999999999998 6
    vertex -6.75 0.7499999999999987 6
  endloop
endfacet
facet normal 0 -0 1
  outer loop
    vertex -5.910714285714285 0.7499999999999998 6
    vertex -5.910714285714285 1.499999999999998 6
    vertex -6.75 0.7499999999999987 6
  endloop
endfacet
facet normal 0 0 1
  outer loop
    vertex -5.910714285714285 0.7499999999999998 6
    vertex -5.071428571428569 1.5 6
    vertex -5.910714285714285 1.499999999999998 6
  endloop
endfacet
facet normal 0 0 1
  outer loop
    vertex -6.75 0.7499999999999987 6
    vertex -5.910714285714285 1.499999999999998 6
    vertex -6.75 1.499999999999997 6
  endloop
endfacet
facet normal -1 0 0
  outer loop
    vertex -12.75 3 -0.5
    vertex -12.75 2.249999999999998 -0.5
    vertex -12.75 2.624999999999999 -0.1250000000000003
  endloop
endfacet
facet normal -1 0 0
  outer loop
    vertex -12.75 2.249999999999998 -0.5
    vertex -12.75 1.874999999999998 -0.1250000000000003
    vertex -12.75 2.624999999999999 -0.1250000000000003
  endloop
endfacet
facet normal -1 0 0
  outer loop
    vertex -12.75 2.249999999999998 -0.5
    vertex -12.75 1.499999999999997 -0.5
    vertex -12.75 1.874999999999998 -0.1250000000000003
  endloop
endfacet
facet normal -1 0 0
  outer loop
    vertex -12.75 2.624999999999999 -0.1250000000000003
    vertex -12.75 1.874999999999998 -0.1250000000000003
    vertex -12.75 2.249999999999998 0.2499999999999987
  endloop
endfacet
facet normal -1 0 0
  outer loop
    vertex -12.75 0 0.9999999999999971
    vertex -12.75 0 1.749999999999998
    vertex -12.75 0.3749999999999991 1.374999999999998
  endloop
endfacet
facet normal -1 0 0
  outer loop
    vertex -12.75 0 1.749999999999998
    vertex -12.75 0.3749999999999991 2.125
    vertex -12.75 0.3749999999999991 1.374999999999998
  endloop
endfacet
facet normal -1 0 0
  outer loop
    vertex -12.75 0 1.749999999999998
    vertex -12.75 0 2.5
    vertex -12.75 0.3749999999999991 2.125
  endloop
endfacet
facet normal -1 0 0
  outer loop
    vertex -12.75 0.3749999999999991 1.374999999999998
    vertex -12.75 0.3749999999999991 2.125
    vertex -12.75 0.7499999999999982 1.749999999999999
  endloop
endfacet
facet normal -1 0 -0
  outer loop
    vertex -12.75 3 2.5
    vertex -12.75 3 1.749999999999998
    vertex -12.75 2.576192211578508 2.076192211578508
  endloop
endfacet
facet normal -1 -0 0
  outer loop
    vertex -12.75 3 1.749999999999998
    vertex -12.75 2.576192211578508 1.326192211578506
    vertex -12.75 2.576192211578508 2.076192211578508
  endloop
endfacet
facet normal -1 0 -0
  outer loop
    vertex -12.75 3 1.749999999999998
    vertex -12.75 3 0.9999999999999971
    vertex -12.75 2.576192211578508 1.326192211578506
  endloop
endfacet
facet normal -1 -8.38284e-15 -0
  outer loop
    vertex -12.75 2.576192211578508 2.076192211578508
    vertex -12.75 2.576192211578508 1.326192211578506
    vertex -12.75 2.152384423157016 1.652384423157016
  endloop
endfacet
facet normal -1 0 0
  outer loop
    vertex -12.75 1.499999999999997 2.5
    vertex -12.75 2.249999999999998 2.5
    vertex -12.75 1.826192211578507 2.076192211578508
  endloop
endfacet
facet normal -1 0 -0
  outer loop
    vertex -12.75 2.249999999999998 2.5
    vertex -12.75 2.576192211578508 2.076192211578508
    vertex -12.75 1.826192211578507 2.076192211578508
  endloop
endfacet
facet normal -1 0 0
  outer loop
    vertex -12.75 2.249999999999998 2.5
    vertex -12.75 3 2.5
    vertex -12.75 2.576192211578508 2.076192211578508
  endloop
endfacet
facet normal -1 0 -8.38284e-15
  outer loop
    vertex -12.75 1.826192211578507 2.076192211578508
    vertex -12.75 2.576192211578508 2.076192211578508
    vertex -12.75 2.152384423157016 1.652384423157016
  endloop
endfacet
facet normal -1 0 0
  outer loop
    vertex -12.75 0 -0.5
    vertex -12.75 0 0.2499999999999987
    vertex -12.75 0.5031181204260122 0.003118120426012561
  endloop
endfacet
facet normal -1 0 0
  outer loop
    vertex -12.75 0 0.2499999999999987
    vertex -12.75 0.5031181204260122 0.7531181204260108
    vertex -12.75 0.5031181204260122 0.003118120426012561
  endloop
endfacet
facet normal -1 0 0
  outer loop
    vertex -12.75 0 0.2499999999999987
    vertex -12.75 0 0.9999999999999971
    vertex -12.75 0.5031181204260122 0.7531181204260108
  endloop
endfacet
facet normal -1 0 0
  outer loop
    vertex -12.75 0.5031181204260122 0.003118120426012561
    vertex -12.75 0.5031181204260122 0.7531181204260108
    vertex -12.75 1.006236240852024 0.5062362408520247
  endloop
endfacet
facet normal -1 0 -0
  outer loop
    vertex -12.75 3 0.9999999999999971
    vertex -12.75 3 0.2499999999999987
    vertex -12.75 2.624999999999999 0.624999999999998
  endloop
endfacet
facet normal -1 -0 0
  outer loop
    vertex -12.75 3 0.2499999999999987
    vertex -12.75 2.624999999999999 -0.1250000000000003
    vertex -12.75 2.624999999999999 0.624999999999998
  endloop
endfacet
facet normal -1 0 -0
  outer loop
    vertex -12.75 3 0.2499999999999987
    vertex -12.75 3 -0.5
    vertex -12.75 2.624999999999999 -0.1250000000000003
  endloop
endfacet
facet normal -1 0 -0
  outer loop
    vertex -12.75 2.624999999999999 0.624999999999998
    vertex -12.75 2.624999999999999 -0.1250000000000003
    vertex -12.75 2.249999999999998 0.2499999999999987
  endloop
endfacet
facet normal -1 0 0
  outer loop
    vertex -12.75 1.499999999999997 -0.5
    vertex -12.75 0.7499999999999987 -0.5
    vertex -12.75 1.253118120426011 0.003118120426012561
  endloop
endfacet
facet normal -1 0 0
  outer loop
    vertex -12.75 0.7499999999999987 -0.5
    vertex -12.75 0.5031181204260122 0.003118120426012561
    vertex -12.75 1.253118120426011 0.003118120426012561
  endloop
endfacet
facet normal -1 0 0
  outer loop
    vertex -12.75 0.7499999999999987 -0.5
    vertex -12.75 0 -0.5
    vertex -12.75 0.5031181204260122 0.003118120426012561
  endloop
endfacet
facet normal -1 0 0
  outer loop
    vertex -12.75 1.253118120426011 0.003118120426012561
    vertex -12.75 0.5031181204260122 0.003118120426012561
    vertex -12.75 1.006236240852024 0.5062362408520247
  endloop
endfacet
facet normal -1 0 0
  outer loop
    vertex -12.75 0 2.5
    vertex -12.75 0.7499999999999987 2.5
    vertex -12.75 0.3749999999999991 2.125
  endloop
endfacet
facet normal -1 0 -0
  outer loop
    vertex -12.75 0.7499999999999987 2.5
    vertex -12.75 1.124999999999998 2.125
    vertex -12.75 0.3749999999999991 2.125
  endloop
endfacet
facet normal -1 0 0
  outer loop
    vertex -12.75 0.7499999999999987 2.5
    vertex -12.75 1.499999999999997 2.5
    vertex -12.75 1.124999999999998 2.125
  endloop
endfacet
facet normal -1 0 0
  outer loop
    vertex -12.75 0.3749999999999991 2.125
    vertex -12.75 1.124999999999998 2.125
    vertex -12.75 0.7499999999999982 1.749999999999999
  endloop
endfacet
facet normal -1 0 0
  outer loop
    vertex -12.75 0 0.9999999999999971
    vertex -12.75 0.3749999999999991 1.374999999999998
    vertex -12.75 0.5031181204260122 0.7531181204260108
  endloop
endfacet
facet normal -1 0 0
  outer loop
    vertex -12.75 0.3749999999999991 1.374999999999998
    vertex -12.75 0.8781181204260113 1.128118120426012
    vertex -12.75 0.5031181204260122 0.7531181204260108
  endloop
endfacet
facet normal -1 0 0
  outer loop
    vertex -12.75 0.3749999999999991 1.374999999999998
    vertex -12.75 0.7499999999999982 1.749999999999999
    vertex -12.75 0.8781181204260113 1.128118120426012
  endloop
endfacet
facet normal -1 0 0
  outer loop
    vertex -12.75 0.5031181204260122 0.7531181204260108
    vertex -12.75 0.8781181204260113 1.128118120426012
    vertex -12.75 1.006236240852024 0.5062362408520247
  endloop
endfacet
facet normal -1 -0 0
  outer loop
    vertex -12.75 2.249999999999998 0.2499999999999987
    vertex -12.75 1.874999999999998 -0.1250000000000003
    vertex -12.75 1.628118120426011 0.3781181204260116
  endloop
endfacet
facet normal -1 0 0
  outer loop
    vertex -12.75 1.874999999999998 -0.1250000000000003
    vertex -12.75 1.253118120426011 0.003118120426012561
    vertex -12.75 1.628118120426011 0.3781181204260116
  endloop
endfacet
facet normal -1 -0 0
  outer loop
    vertex -12.75 1.874999999999998 -0.1250000000000003
    vertex -12.75 1.499999999999997 -0.5
    vertex -12.75 1.253118120426011 0.003118120426012561
  endloop
endfacet
facet normal -1 -0 0
  outer loop
    vertex -12.75 1.628118120426011 0.3781181204260116
    vertex -12.75 1.253118120426011 0.003118120426012561
    vertex -12.75 1.006236240852024 0.5062362408520247
  endloop
endfacet
facet normal -1 0 -0
  outer loop
    vertex -12.75 1.499999999999997 2.5
    vertex -12.75 1.826192211578507 2.076192211578508
    vertex -12.75 1.124999999999998 2.125
  endloop
endfacet
facet normal -1 -3.08267e-16 -4.42868e-15
  outer loop
    vertex -12.75 1.826192211578507 2.076192211578508
    vertex -12.75 1.451192211578507 1.701192211578508
    vertex -12.75 1.124999999999998 2.125
  endloop
endfacet
facet normal -1 2.06021e-15 -6.79716e-15
  outer loop
    vertex -12.75 1.826192211578507 2.076192211578508
    vertex -12.75 2.152384423157016 1.652384423157016
    vertex -12.75 1.451192211578507 1.701192211578508
  endloop
endfacet
facet normal -1 2.36848e-15 -2.36848e-15
  outer loop
    vertex -12.75 1.124999999999998 2.125
    vertex -12.75 1.451192211578507 1.701192211578508
    vertex -12.75 0.7499999999999982 1.749999999999999
  endloop
endfacet
facet normal -1 -4.73695e-15 4.73695e-15
  outer loop
    vertex -12.75 2.152384423157016 1.652384423157016
    vertex -12.75 2.576192211578508 1.326192211578506
    vertex -12.75 2.201192211578507 0.9511922115785072
  endloop
endfacet
facet normal -1 0 -0
  outer loop
    vertex -12.75 2.576192211578508 1.326192211578506
    vertex -12.75 2.624999999999999 0.624999999999998
    vertex -12.75 2.201192211578507 0.9511922115785072
  endloop
endfacet
facet normal -1 0 0
  outer loop
    vertex -12.75 2.576192211578508 1.326192211578506
    vertex -12.75 3 0.9999999999999971
    vertex -12.75 2.624999999999999 0.624999999999998
  endloop
endfacet
facet normal -1 0 0
  outer loop
    vertex -12.75 2.201192211578507 0.9511922115785072
    vertex -12.75 2.624999999999999 0.624999999999998
    vertex -12.75 2.249999999999998 0.2499999999999987
  endloop
endfacet
facet normal -1 2.5702e-15 5.29503e-16
  outer loop
    vertex -12.75 0.7499999999999982 1.749999999999999
    vertex -12.75 1.451192211578507 1.701192211578508
    vertex -12.75 0.8781181204260113 1.128118120426012
  endloop
endfacet
facet normal -1 2.01719e-16 2.89798e-15
  outer loop
    vertex -12.75 1.451192211578507 1.701192211578508
    vertex -12.75 1.57931033200452 1.079310332004521
    vertex -12.75 0.8781181204260113 1.128118120426012
  endloop
endfacet
facet normal -1 2.77191e-15 3.42748e-15
  outer loop
    vertex -12.75 1.451192211578507 1.701192211578508
    vertex -12.75 2.152384423157016 1.652384423157016
    vertex -12.75 1.57931033200452 1.079310332004521
  endloop
endfacet
facet normal -1 0 0
  outer loop
    vertex -12.75 0.8781181204260113 1.128118120426012
    vertex -12.75 1.57931033200452 1.079310332004521
    vertex -12.75 1.006236240852024 0.5062362408520247
  endloop
endfacet
facet normal -1 1.05901e-15 5.14039e-15
  outer loop
    vertex -12.75 2.152384423157016 1.652384423157016
    vertex -12.75 2.201192211578507 0.9511922115785072
    vertex -12.75 1.57931033200452 1.079310332004521
  endloop
endfacet
facet normal -1 -0 0
  outer loop
    vertex -12.75 2.201192211578507 0.9511922115785072
    vertex -12.75 1.628118120426011 0.3781181204260116
    vertex -12.75 1.57931033200452 1.079310332004521
  endloop
endfacet
facet normal -1 0 -0
  outer loop
    vertex -12.75 2.201192211578507 0.9511922115785072
    vertex -12.75 2.249999999999998 0.2499999999999987
    vertex -12.75 1.628118120426011 0.3781181204260116
  endloop
endfacet
facet normal -1 0 -0
  outer loop
    vertex -12.75 1.57931033200452 1.079310332004521
    vertex -12.75 1.628118120426011 0.3781181204260116
    vertex -12.75 1.006236240852024 0.5062362408520247
  endloop
endfacet
facet normal -0.503871 -2.5573e-16 0.863779
  outer loop
    vertex -12.75 1.499999999999997 2.5
    vertex -11.24999999999999 0.7499999999999984 3.375000000000002
    vertex -11.24999999999999 2.249999999999998 3.375000000000003
  endloop
endfacet
facet normal -0.503871 -2.5573e-16 0.863779
  outer loop
    vertex -11.24999999999999 0.7499999999999984 3.375000000000002
    vertex -9.749999999999993 1.5 4.250000000000004
    vertex -11.24999999999999 2.249999999999998 3.375000000000003
  endloop
endfacet
facet normal -0.503871 -5.1146e-16 0.863779
  outer loop
    vertex -11.24999999999999 0.7499999999999984 3.375000000000002
    vertex -9.749999999999993 0 4.250000000000003
    vertex -9.749999999999993 1.5 4.250000000000004
  endloop
endfacet
facet normal -0.503871 5.1146e-16 0.863779
  outer loop
    vertex -11.24999999999999 2.249999999999998 3.375000000000003
    vertex -9.749999999999993 1.5 4.250000000000004
    vertex -9.749999999999993 3 4.250000000000003
  endloop
endfacet
facet normal -0.503871 -5.1146e-16 0.863779
  outer loop
    vertex -9.749999999999993 0 4.250000000000003
    vertex -8.249999999999995 0.7499999999999984 5.125000000000002
    vertex -9.749999999999993 1.5 4.250000000000004
  endloop
endfacet
facet normal -0.503871 0 0.863779
  outer loop
    vertex -8.249999999999995 0.7499999999999984 5.125000000000002
    vertex -8.249999999999995 2.249999999999998 5.125000000000002
    vertex -9.749999999999993 1.5 4.250000000000004
  endloop
endfacet
facet normal -0.503871 0 0.863779
  outer loop
    vertex -8.249999999999995 0.7499999999999984 5.125000000000002
    vertex -6.75 1.499999999999997 6
    vertex -8.249999999999995 2.249999999999998 5.125000000000002
  endloop
endfacet
facet normal -0.503871 5.1146e-16 0.863779
  outer loop
    vertex -9.749999999999993 1.5 4.250000000000004
    vertex -8.249999999999995 2.249999999999998 5.125000000000002
    vertex -9.749999999999993 3 4.250000000000003
  endloop
endfacet
facet normal -0.503871 1.19341e-15 0.863779
  outer loop
    vertex -9.749999999999993 0 4.250000000000003
    vertex -8.249999999999996 0 5.125000000000002
    vertex -8.249999999999995 0.7499999999999984 5.125000000000002
  endloop
endfacet
facet normal -0.503871 1.19341e-15 0.863779
  outer loop
    vertex -8.249999999999996 0 5.125000000000002
    vertex -6.75 0.7499999999999987 6
    vertex -8.249999999999995 0.7499999999999984 5.125000000000002
  endloop
endfacet
facet normal -0.503871 0 0.863779
  outer loop
    vertex -8.249999999999996 0 5.125000000000002
    vertex -6.75 0 6
    vertex -6.75 0.7499999999999987 6
  endloop
endfacet
facet normal -0.503871 0 0.863779
  outer loop
    vertex -8.249999999999995 0.7499999999999984 5.125000000000002
    vertex -6.75 0.7499999999999987 6
    vertex -6.75 1.499999999999997 6
  endloop
endfacet
facet normal -0.503871 0 0.863779
  outer loop
    vertex -12.75 1.499999999999997 2.5
    vertex -12.75 0.7499999999999987 2.5
    vertex -11.24999999999999 0.7499999999999984 3.375000000000002
  endloop
endfacet
facet normal -0.503871 1.87535e-15 0.863779
  outer loop
    vertex -12.75 0.7499999999999987 2.5
    vertex -11.25 0 3.375000000000002
    vertex -11.24999999999999 0.7499999999999984 3.375000000000002
  endloop
endfacet
facet normal -0.503871 0 0.863779
  outer loop
    vertex -12.75 0.7499999999999987 2.5
    vertex -12.75 0 2.5
    vertex -11.25 0 3.375000000000002
  endloop
endfacet
facet normal -0.503871 1.87535e-15 0.863779
  outer loop
    vertex -11.24999999999999 0.7499999999999984 3.375000000000002
    vertex -11.25 0 3.375000000000002
    vertex -9.749999999999993 0 4.250000000000003
  endloop
endfacet
facet normal -0.503871 -1.19341e-15 0.863779
  outer loop
    vertex -9.749999999999993 3 4.250000000000003
    vertex -8.249999999999995 2.249999999999998 5.125000000000002
    vertex -8.249999999999996 3 5.125000000000002
  endloop
endfacet
facet normal -0.503871 -1.19341e-15 0.863779
  outer loop
    vertex -8.249999999999995 2.249999999999998 5.125000000000002
    vertex -6.75 2.249999999999998 6
    vertex -8.249999999999996 3 5.125000000000002
  endloop
endfacet
facet normal -0.503871 0 0.863779
  outer loop
    vertex -8.249999999999995 2.249999999999998 5.125000000000002
    vertex -6.75 1.499999999999997 6
    vertex -6.75 2.249999999999998 6
  endloop
endfacet
facet normal -0.503871 0 0.863779
  outer loop
    vertex -8.249999999999996 3 5.125000000000002
    vertex -6.75 2.249999999999998 6
    vertex -6.75 3 6
  endloop
endfacet
facet normal -0.503871 0 0.863779
  outer loop
    vertex -12.75 1.499999999999997 2.5
    vertex -11.24999999999999 2.249999999999998 3.375000000000003
    vertex -12.75 2.249999999999998 2.5
  endloop
endfacet
facet normal -0.503871 -1.36389e-15 0.863779
  outer loop
    vertex -11.24999999999999 2.249999999999998 3.375000000000003
    vertex -11.25 3 3.375000000000002
    vertex -12.75 2.249999999999998 2.5
  endloop
endfacet
facet normal -0.503871 -1.36389e-15 0.863779
  outer loop
    vertex -11.24999999999999 2.249999999999998 3.375000000000003
    vertex -9.749999999999993 3 4.250000000000003
    vertex -11.25 3 3.375000000000002
  endloop
endfacet
facet normal -0.503871 0 0.863779
  outer loop
    vertex -12.75 2.249999999999998 2.5
    vertex -11.25 3 3.375000000000002
    vertex -12.75 3 2.5
  endloop
endfacet
facet normal -1 0 0
  outer loop
    vertex -16.75 -2 -6
    vertex -16.75 -2 1
    vertex -16.75 0.5 1
  endloop
endfacet
facet normal -1 0 0
  outer loop
    vertex -16.75 -2 1
    vertex -16.75 0.5 8
    vertex -16.75 0.5 1
  endloop
endfacet
facet normal -1 0 0
  outer loop
    vertex -16.75 -2 1
    vertex -16.75 -2 8
    vertex -16.75 0.5 8
  endloop
endfacet
facet normal -1 0 0
  outer loop
    vertex -16.75 0.5 1
    vertex -16.75 0.5 8
    vertex -16.75 3 8
  endloop
endfacet
facet normal -1 0 0
  outer loop
    vertex -16.75 -2 -6
    vertex -16.75 0.5 1
    vertex -16.75 0.5 -6
  endloop
endfacet
facet normal -1 0 0
  outer loop
    vertex -16.75 0.5 1
    vertex -16.75 3 1
    vertex -16.75 0.5 -6
  endloop
endfacet
facet normal -1 0 0
  outer loop
    vertex -16.75 0.5 1
    vertex -16.75 3 8
    vertex -16.75 3 1
  endloop
endfacet
facet normal -1 0 0
  outer loop
    vertex -16.75 0.5 -6
    vertex -16.75 3 1
    vertex -16.75 3 -6
  endloop
endfacet
facet normal 0 -1 0
  outer loop
    vertex -16.75 -2 8
    vertex -16.75 -2 1
    vertex -8.375 -2 4.5
  endloop
endfacet
facet normal 0 -1 0
  outer loop
    vertex -16.75 -2 1
    vertex -8.375 -2 -2.5
    vertex -8.375 -2 4.5
  endloop
endfacet
facet normal 0 -1 0
  outer loop
    vertex -16.75 -2 1
    vertex -16.75 -2 -6
    vertex -8.375 -2 -2.5
  endloop
endfacet
facet normal 0 -1 0
  outer loop
    vertex -8.375 -2 4.5
    vertex -8.375 -2 -2.5
    vertex 0 -2 1
  endloop
endfacet
facet normal 0 -1 0
  outer loop
    vertex 16.75 -2 -6
    vertex 16.75 -2 1
    vertex 8.375 -2 -2.5
  endloop
endfacet
facet normal -0 -1 0
  outer loop
    vertex 16.75 -2 1
    vertex 8.375 -2 4.5
    vertex 8.375 -2 -2.5
  endloop
endfacet
facet normal 0 -1 0
  outer loop
    vertex 16.75 -2 1
    vertex 16.75 -2 8
    vertex 8.375 -2 4.5
  endloop
endfacet
facet normal 0 -1 0
  outer loop
    vertex 8.375 -2 -2.5
    vertex 8.375 -2 4.5
    vertex 0 -2 1
  endloop
endfacet
facet normal -0 -1 0
  outer loop
    vertex 16.75 -2 8
    vertex 0 -2 8
    vertex 8.375 -2 4.5
  endloop
endfacet
facet normal 0 -1 -0
  outer loop
    vertex 0 -2 8
    vertex -8.375 -2 4.5
    vertex 8.375 -2 4.5
  endloop
endfacet
facet normal -0 -1 0
  outer loop
    vertex 0 -2 8
    vertex -16.75 -2 8
    vertex -8.375 -2 4.5
  endloop
endfacet
facet normal -0 -1 0
  outer loop
    vertex 8.375 -2 4.5
    vertex -8.375 -2 4.5
    vertex 0 -2 1
  endloop
endfacet
facet normal 0 -1 0
  outer loop
    vertex -16.75 -2 -6
    vertex 0 -2 -6
    vertex -8.375 -2 -2.5
  endloop
endfacet
facet normal 0 -1 0
  outer loop
    vertex 0 -2 -6
    vertex 8.375 -2 -2.5
    vertex -8.375 -2 -2.5
  endloop
endfacet
facet normal 0 -1 0
  outer loop
    vertex 0 -2 -6
    vertex 16.75 -2 -6
    vertex 8.375 -2 -2.5
  endloop
endfacet
facet normal 0 -1 0
  outer loop
    vertex -8.375 -2 -2.5
    vertex 8.375 -2 -2.5
    vertex 0 -2 1
  endloop
endfacet
facet normal -0 0 1
  outer loop
    vertex -16.75 3 8
    vertex -16.75 0.5 8
    vertex 0 3 8
  endloop
endfacet
facet normal 0 0 1
  outer loop
    vertex -16.75 0.5 8
    vertex 0 0.5 8
    vertex 0 3 8
  endloop
endfacet
facet normal -0 0 1
  outer loop
    vertex -16.75 0.5 8
    vertex -16.75 -2 8
    vertex 0 0.5 8
  endloop
endfacet
facet normal -0 0 1
  outer loop
    vertex 0 3 8
    vertex 0 0.5 8
    vertex 16.75 3 8
  endloop
endfacet
facet normal 0 0 1
  outer loop
    vertex -16.75 -2 8
    vertex 0 -2 8
    vertex 0 0.5 8
  endloop
endfacet
facet normal 0 0 1
  outer loop
    vertex 0 -2 8
    vertex 16.75 0.5 8
    vertex 0 0.5 8
  endloop
endfacet
facet normal 0 0 1
  outer loop
    vertex 0 -2 8
    vertex 16.75 -2 8
    vertex 16.75 0.5 8
  endloop
endfacet
facet normal 0 0 1
  outer loop
    vertex 0 0.5 8
    vertex 16.75 0.5 8
    vertex 16.75 3 8
  endloop
endfacet
facet normal 0 1 0
  outer loop
    vertex -16.75 3 -6
    vertex -16.75 3 1
    vertex -14.75 3 -2.500000000000002
  endloop
endfacet
facet normal -0 1 0
  outer loop
    vertex -16.75 3 1
    vertex -14.75 3 4.499999999999998
    vertex -14.75 3 -2.500000000000002
  endloop
endfacet
facet normal 0 1 0
  outer loop
    vertex -16.75 3 1
    vertex -16.75 3 8
    vertex -14.75 3 4.499999999999998
  endloop
endfacet
facet normal 0 1 0
  outer loop
    vertex -14.75 3 -2.500000000000002
    vertex -14.75 3 4.499999999999998
    vertex -12.75 3 0.9999999999999971
  endloop
endfacet
facet normal 0 1 -0
  outer loop
    vertex 16.75 3 -6
    vertex 14.75 3 -3.25
    vertex 16.75 3 1
  endloop
endfacet
facet normal 0 1 0
  outer loop
    vertex 14.75 3 -3.25
    vertex 14.75 3 3.75
    vertex 16.75 3 1
  endloop
endfacet
facet normal 0 1 -0
  outer loop
    vertex 14.75 3 -3.25
    vertex 12.75 3 -0.5
    vertex 14.75 3 3.75
  endloop
endfacet
facet normal 0 1 -0
  outer loop
    vertex 16.75 3 1
    vertex 14.75 3 3.75
    vertex 16.75 3 8
  endloop
endfacet
facet normal 0 1 -0
  outer loop
    vertex 12.75 3 2.5
    vertex 9.75 3 4.25
    vertex 14.75 3 5.25
  endloop
endfacet
facet normal 0 1 0
  outer loop
    vertex 9.75 3 4.25
    vertex 11.75 3 7
    vertex 14.75 3 5.25
  endloop
endfacet
facet normal 0 1 -0
  outer loop
    vertex 9.75 3 4.25
    vertex 6.75 3 6
    vertex 11.75 3 7
  endloop
endfacet
facet normal 0 1 -0
  outer loop
    vertex 14.75 3 5.25
    vertex 11.75 3 7
    vertex 16.75 3 8
  endloop
endfacet
facet normal 0 1 0
  outer loop
    vertex 16.75 3 -6
    vertex 11.75 3 -5
    vertex 14.75 3 -3.25
  endloop
endfacet
facet normal 0 1 -0
  outer loop
    vertex 11.75 3 -5
    vertex 9.75 3 -2.25
    vertex 14.75 3 -3.25
  endloop
endfacet
facet normal 0 1 0
  outer loop
    vertex 11.75 3 -5
    vertex 6.75 3 -4
    vertex 9.75 3 -2.25
  endloop
endfacet
facet normal 0 1 0
  outer loop
    vertex 14.75 3 -3.25
    vertex 9.75 3 -2.25
    vertex 12.75 3 -0.5
  endloop
endfacet
facet normal 0 1 -0
  outer loop
    vertex -12.75 3 2.5
    vertex -14.75 3 5.25
    vertex -11.25 3 3.375000000000002
  endloop
endfacet
facet normal -0 1 0
  outer loop
    vertex -14.75 3 5.25
    vertex -13.25 3 6.125000000000002
    vertex -11.25 3 3.375000000000002
  endloop
endfacet
facet normal 0 1 -0
  outer loop
    vertex -14.75 3 5.25
    vertex -16.75 3 8
    vertex -13.25 3 6.125000000000002
  endloop
endfacet
facet normal 0 1 -0
  outer loop
    vertex -11.25 3 3.375000000000002
    vertex -13.25 3 6.125000000000002
    vertex -9.749999999999993 3 4.250000000000003
  endloop
endfacet
facet normal 0 1 0
  outer loop
    vertex -16.75 3 -6
    vertex -14.75 3 -3.25
    vertex -13.25 3 -4.124999999999998
  endloop
endfacet
facet normal -0 1 0
  outer loop
    vertex -14.75 3 -3.25
    vertex -11.25 3 -1.374999999999998
    vertex -13.25 3 -4.124999999999998
  endloop
endfacet
facet normal 0 1 0
  outer loop
    vertex -14.75 3 -3.25
    vertex -12.75 3 -0.5
    vertex -11.25 3 -1.374999999999998
  endloop
endfacet
facet normal 0 1 0
  outer loop
    vertex -13.25 3 -4.124999999999998
    vertex -11.25 3 -1.374999999999998
    vertex -9.750000000000005 3 -2.249999999999996
  endloop
endfacet
facet normal 0 1 0
  outer loop
    vertex 16.75 3 -6
    vertex 8.375 3 -5
    vertex 11.75 3 -5
  endloop
endfacet
facet normal 0 1 -0
  outer loop
    vertex 8.375 3 -5
    vertex 3.375 3 -4
    vertex 11.75 3 -5
  endloop
endfacet
facet normal 0 1 0
  outer loop
    vertex 8.375 3 -5
    vertex 0 3 -4
    vertex 3.375 3 -4
  endloop
endfacet
facet normal 0 1 0
  outer loop
    vertex 11.75 3 -5
    vertex 3.375 3 -4
    vertex 6.75 3 -4
  endloop
endfacet
facet normal 0 1 0
  outer loop
    vertex -16.75 3 -6
    vertex -11.75 3 -5
    vertex -10.0625 3 -5
  endloop
endfacet
facet normal 0 1 0
  outer loop
    vertex -11.75 3 -5
    vertex -5.062500000000003 3 -4
    vertex -10.0625 3 -5
  endloop
endfacet
facet normal 0 1 0
  outer loop
    vertex -11.75 3 -5
    vertex -6.75 3 -4
    vertex -5.062500000000003 3 -4
  endloop
endfacet
facet normal 0 1 0
  outer loop
    vertex -10.0625 3 -5
    vertex -5.062500000000003 3 -4
    vertex -3.375000000000004 3 -4
  endloop
endfacet
facet normal 0 1 0
  outer loop
    vertex -16.75 3 -6
    vertex -13.25 3 -4.124999999999998
    vertex -11.75 3 -5
  endloop
endfacet
facet normal -0 1 0
  outer loop
    vertex -13.25 3 -4.124999999999998
    vertex -8.250000000000004 3 -3.124999999999998
    vertex -11.75 3 -5
  endloop
endfacet
facet normal 0 1 0
  outer loop
    vertex -13.25 3 -4.124999999999998
    vertex -9.750000000000005 3 -2.249999999999996
    vertex -8.250000000000004 3 -3.124999999999998
  endloop
endfacet
facet normal 0 1 0
  outer loop
    vertex -11.75 3 -5
    vertex -8.250000000000004 3 -3.124999999999998
    vertex -6.75 3 -4
  endloop
endfacet
facet normal 0 1 0
  outer loop
    vertex -16.75 3 -6
    vertex -8.375 3 -5
    vertex 0 3 -6
  endloop
endfacet
facet normal -0 1 0
  outer loop
    vertex -8.375 3 -5
    vertex 8.375 3 -5
    vertex 0 3 -6
  endloop
endfacet
facet normal 0 1 0
  outer loop
    vertex -8.375 3 -5
    vertex 0 3 -4
    vertex 8.375 3 -5
  endloop
endfacet
facet normal 0 1 0
  outer loop
    vertex 0 3 -6
    vertex 8.375 3 -5
    vertex 16.75 3 -6
  endloop
endfacet
facet normal -0 1 0
  outer loop
    vertex -3.375000000000004 3 -4
    vertex -1.687500000000003 3 -4
    vertex -10.0625 3 -5
  endloop
endfacet
facet normal 0 1 0
  outer loop
    vertex -1.687500000000003 3 -4
    vertex -8.375 3 -5
    vertex -10.0625 3 -5
  endloop
endfacet
facet normal -0 1 0
  outer loop
    vertex -1.687500000000003 3 -4
    vertex 0 3 -4
    vertex -8.375 3 -5
  endloop
endfacet
facet normal -0 1 0
  outer loop
    vertex -10.0625 3 -5
    vertex -8.375 3 -5
    vertex -16.75 3 -6
  endloop
endfacet
facet normal 0 1 0
  outer loop
    vertex 16.75 3 8
    vertex 11.75 3 7
    vertex 8.375 3 7
  endloop
endfacet
facet normal 0 1 0
  outer loop
    vertex 11.75 3 7
    vertex 3.375 3 6
    vertex 8.375 3 7
  endloop
endfacet
facet normal 0 1 0
  outer loop
    vertex 11.75 3 7
    vertex 6.75 3 6
    vertex 3.375 3 6
  endloop
endfacet
facet normal 0 1 0
  outer loop
    vertex 8.375 3 7
    vertex 3.375 3 6
    vertex 0 3 6
  endloop
endfacet
facet normal 0 1 -0
  outer loop
    vertex 0 3 6
    vertex -8.375 3 7
    vertex 8.375 3 7
  endloop
endfacet
facet normal 0 1 0
  outer loop
    vertex -8.375 3 7
    vertex 0 3 8
    vertex 8.375 3 7
  endloop
endfacet
facet normal 0 1 -0
  outer loop
    vertex -8.375 3 7
    vertex -16.75 3 8
    vertex 0 3 8
  endloop
endfacet
facet normal 0 1 -0
  outer loop
    vertex 8.375 3 7
    vertex 0 3 8
    vertex 16.75 3 8
  endloop
endfacet
facet normal 0 1 0
  outer loop
    vertex 0 3 6
    vertex -1.687499999999997 3 6
    vertex -8.375 3 7
  endloop
endfacet
facet normal 0 1 0
  outer loop
    vertex -1.687499999999997 3 6
    vertex -10.0625 3 7
    vertex -8.375 3 7
  endloop
endfacet
facet normal 0 1 0
  outer loop
    vertex -1.687499999999997 3 6
    vertex -3.374999999999995 3 6
    vertex -10.0625 3 7
  endloop
endfacet
facet normal 0 1 0
  outer loop
    vertex -8.375 3 7
    vertex -10.0625 3 7
    vertex -16.75 3 8
  endloop
endfacet
facet normal 0 1 -0
  outer loop
    vertex -6.75 3 6
    vertex -11.75 3 7
    vertex -5.062499999999997 3 6
  endloop
endfacet
facet normal -0 1 0
  outer loop
    vertex -11.75 3 7
    vertex -10.0625 3 7
    vertex -5.062499999999997 3 6
  endloop
endfacet
facet normal 0 1 -0
  outer loop
    vertex -11.75 3 7
    vertex -16.75 3 8
    vertex -10.0625 3 7
  endloop
endfacet
facet normal 0 1 -0
  outer loop
    vertex -5.062499999999997 3 6
    vertex -10.0625 3 7
    vertex -3.374999999999995 3 6
  endloop
endfacet
facet normal 0 1 -0
  outer loop
    vertex -9.749999999999993 3 4.250000000000003
    vertex -13.25 3 6.125000000000002
    vertex -8.249999999999996 3 5.125000000000002
  endloop
endfacet
facet normal -0 1 0
  outer loop
    vertex -13.25 3 6.125000000000002
    vertex -11.75 3 7
    vertex -8.249999999999996 3 5.125000000000002
  endloop
endfacet
facet normal 0 1 -0
  outer loop
    vertex -13.25 3 6.125000000000002
    vertex -16.75 3 8
    vertex -11.75 3 7
  endloop
endfacet
facet normal 0 1 -0
  outer loop
    vertex -8.249999999999996 3 5.125000000000002
    vertex -11.75 3 7
    vertex -6.75 3 6
  endloop
endfacet
facet normal 0 1 0
  outer loop
    vertex 12.75 3 -0.5
    vertex 12.75 3 1
    vertex 14.75 3 3.75
  endloop
endfacet
facet normal 0 1 0
  outer loop
    vertex 12.75 3 1
    vertex 14.75 3 5.25
    vertex 14.75 3 3.75
  endloop
endfacet
facet normal 0 1 0
  outer loop
    vertex 12.75 3 1
    vertex 12.75 3 2.5
    vertex 14.75 3 5.25
  endloop
endfacet
facet normal 0 1 0
  outer loop
    vertex 14.75 3 3.75
    vertex 14.75 3 5.25
    vertex 16.75 3 8
  endloop
endfacet
facet normal 0 1 -0
  outer loop
    vertex -12.75 3 0.9999999999999971
    vertex -14.75 3 4.499999999999998
    vertex -12.75 3 1.749999999999998
  endloop
endfacet
facet normal -0 1 0
  outer loop
    vertex -14.75 3 4.499999999999998
    vertex -14.75 3 5.25
    vertex -12.75 3 1.749999999999998
  endloop
endfacet
facet normal 0 1 -0
  outer loop
    vertex -14.75 3 4.499999999999998
    vertex -16.75 3 8
    vertex -14.75 3 5.25
  endloop
endfacet
facet normal 0 1 -0
  outer loop
    vertex -12.75 3 1.749999999999998
    vertex -14.75 3 5.25
    vertex -12.75 3 2.5
  endloop
endfacet
facet normal 0 1 0
  outer loop
    vertex -16.75 3 -6
    vertex -14.75 3 -2.500000000000002
    vertex -14.75 3 -3.25
  endloop
endfacet
facet normal -0 1 0
  outer loop
    vertex -14.75 3 -2.500000000000002
    vertex -12.75 3 0.2499999999999987
    vertex -14.75 3 -3.25
  endloop
endfacet
facet normal 0 1 0
  outer loop
    vertex -14.75 3 -2.500000000000002
    vertex -12.75 3 0.9999999999999971
    vertex -12.75 3 0.2499999999999987
  endloop
endfacet
facet normal 0 1 0
  outer loop
    vertex -14.75 3 -3.25
    vertex -12.75 3 0.2499999999999987
    vertex -12.75 3 -0.5
  endloop
endfacet
facet normal 0 0 -1
  outer loop
    vertex -16.75 3 -6
    vertex 0 3 -6
    vertex -16.75 0.5 -6
  endloop
endfacet
facet normal 0 -0 -1
  outer loop
    vertex 0 3 -6
    vertex 0 0.5 -6
    vertex -16.75 0.5 -6
  endloop
endfacet
facet normal 0 0 -1
  outer loop
    vertex 0 3 -6
    vertex 16.75 3 -6
    vertex 0 0.5 -6
  endloop
endfacet
facet normal 0 0 -1
  outer loop
    vertex -16.75 0.5 -6
    vertex 0 0.5 -6
    vertex -16.75 -2 -6
  endloop
endfacet
facet normal 0 0 -1
  outer loop
    vertex -16.75 -2 -6
    vertex 0 0.5 -6
    vertex 0 -2 -6
  endloop
endfacet
facet normal 0 0 -1
  outer loop
    vertex 0 0.5 -6
    vertex 16.75 0.5 -6
    vertex 0 -2 -6
  endloop
endfacet
facet normal 0 0 -1
  outer loop
    vertex 0 0.5 -6
    vertex 16.75 3 -6
    vertex 16.75 0.5 -6
  endloop
endfacet
facet normal 0 0 -1
  outer loop
    vertex 0 -2 -6
    vertex 16.75 0.5 -6
    vertex 16.75 -2 -6
  endloop
endfacet
facet normal 1 0 0
  outer loop
    vertex 16.75 -2 -6
    vertex 16.75 0.5 1
    vertex 16.75 -2 1
  endloop
endfacet
facet normal 1 0 -0
  outer loop
    vertex 16.75 0.5 1
    vertex 16.75 0.5 8
    vertex 16.75 -2 1
  endloop
endfacet
facet normal 1 0 0
  outer loop
    vertex 16.75 0.5 1
    vertex 16.75 3 8
    vertex 16.75 0.5 8
  endloop
endfacet
facet normal 1 0 0
  outer loop
    vertex 16.75 -2 1
    vertex 16.75 0.5 8
    vertex 16.75 -2 8
  endloop
endfacet
facet normal 1 0 -0
  outer loop
    vertex 16.75 3 -6
    vertex 16.75 3 1
    vertex 16.75 0.5 -6
  endloop
endfacet
facet normal 1 0 0
  outer loop
    vertex 16.75 3 1
    vertex 16.75 0.5 1
    vertex 16.75 0.5 -6
  endloop
endfacet
facet normal 1 0 -0
  outer loop
    vertex 16.75 3 1
    vertex 16.75 3 8
    vertex 16.75 0.5 1
  endloop
endfacet
facet normal 1 0 -0
  outer loop
    vertex 16.75 0.5 -6
    vertex 16.75 0.5 1
    vertex 16.75 -2 -6
  endloop
endfacet
endsolid Created by Gmsh
